# xmcd
#
# Track frame offsets: 
#        150
#        14073
#        24181
#        38050
#        51683
#        65638
#        78599
#        88487
#        106188
#        124835
#        140800
#
# Disc length: 2118 seconds
#
# Revision: 0
# Processed by: cddbd v1.5.2PL0 Copyright (c) Steve Scherf et al.
# Submitted via: ExactAudioCopy v1.0b3
#
DISCID=a108440b
DTITLE=Good Lovelies - Good Lovelies
DYEAR=2009
DGENRE=Country
TTITLE0=I Want
TTITLE1=Sleepwalkin'
TTITLE2=Down Down Down
TTITLE3=Cheek to Cheek
TTITLE4=So Charming
TTITLE5=Lie Down
TTITLE6=Baby, I Got My Way
TTITLE7=Laundry (I'm Happy)
TTITLE8=February Song
TTITLE9=Lumberjack
TTITLE10=Into the Spotlight
EXTD=
EXTT0=
EXTT1=
EXTT2=
EXTT3=
EXTT4=
EXTT5=
EXTT6=
EXTT7=
EXTT8=
EXTT9=
EXTT10=
PLAYORDER=
